<?xml version="1.0" encoding="UTF-8" standalone="no" ?>
<!DOCTYPE svg PUBLIC "-//W3C//DTD SVG 1.1//EN" "http://www.w3.org/Graphics/SVG/1.1/DTD/svg11.dtd">
<svg xmlns="http://www.w3.org/2000/svg" xmlns:xlink="http://www.w3.org/1999/xlink" version="1.1" width="1280" height="1024" viewBox="0 0 1280 1024" xml:space="preserve">
<desc>Created with Fabric.js 5.3.0</desc>
<defs>
</defs>
<g transform="matrix(1 0 0 1 640 512)" id="background-logo"  >
<rect style="stroke: none; stroke-width: 0; stroke-dasharray: none; stroke-linecap: butt; stroke-dashoffset: 0; stroke-linejoin: miter; stroke-miterlimit: 4; fill: rgb(255,255,255); fill-opacity: 0; fill-rule: nonzero; opacity: 1;"  paint-order="stroke"  x="-640" y="-512" rx="0" ry="0" width="1280" height="1024" />
</g>
<g transform="matrix(1.9211538461538462 0 0 1.9211538461538462 640 416.7260080674828)" id="logo-logo"  >
<g style=""  paint-order="stroke"   >
		<g transform="matrix(0.9043697752390218 0 0 0.9043697752390218 5.4262187632048e-7 -36.446822589187974)"  >
<radialGradient id="SVGID_2_252019" gradientUnits="userSpaceOnUse" gradientTransform="matrix(1 0 0 1 0 0)"  cx="187.5000005" cy="83.4765846" r="111.3629" fx="187.5000005" fy="83.4765846">
<stop offset="0%" style="stop-color:rgb(180,139,207);stop-opacity: 1"/>
<stop offset="23.005329999999997%" style="stop-color:rgb(175,135,202);stop-opacity: 1"/>
<stop offset="49.76702%" style="stop-color:rgb(163,123,188);stop-opacity: 1"/>
<stop offset="78.29124%" style="stop-color:rgb(142,105,164);stop-opacity: 1"/>
<stop offset="100%" style="stop-color:rgb(122,87,142);stop-opacity: 1"/>
</radialGradient>
<path style="stroke: none; stroke-width: 1; stroke-dasharray: none; stroke-linecap: butt; stroke-dashoffset: 0; stroke-linejoin: miter; stroke-miterlimit: 4; fill: url(#SVGID_2_252019); fill-rule: nonzero; opacity: 1;"  paint-order="stroke"  transform=" translate(-187.50000060000002, -109.69920317825762)" d="M 193.0088125 70.0713119 C 195.01768470000002 64.2258073 202.6728812 62.1748708 202.6728812 62.1748708 L 207.1257658 77.6688039 L 193.0088125 70.0713119 Z M 181.9911886 70.0713119 C 179.98231639999997 64.2258073 172.32711989999999 62.1748708 172.32711989999999 62.1748708 L 167.87423529999998 77.6688039 L 181.9911886 70.0713119 Z M 230.2719672 90.1256113 L 224.708486 60.908086600000004 C 224.708486 60.908086600000004 212.0451424 63.074432 211.4056798 72.9922432 C 211.2183546 75.8978199 212.2813164 78.85417360000001 213.33463700000001 81.0103064 L 230.2719671 90.1256114 Z M 234.7990534 92.5619821 L 250.72112779999998 101.1309515 L 250.72112779999998 56.264448699999996 C 250.72112779999998 56.264448699999996 235.90857869999996 55.946288599999995 233.04492349999998 68.6736928 C 231.44523159999997 75.7834821 234.95402699999997 84.2648236 234.95402699999997 84.2648236 L 234.79905339999996 92.5619822 Z M 161.665364 81.0103063 C 162.71868460000002 78.8541735 163.78164650000002 75.8978197 163.59432120000002 72.9922431 C 162.95485870000002 63.07443189999999 150.29151500000003 60.908086499999996 150.29151500000003 60.908086499999996 L 144.72803380000002 90.1256112 L 161.66536390000002 81.0103062 Z M 140.045974 84.2648236 C 140.045974 84.2648236 143.5547694 75.7834821 141.9550775 68.6736928 C 139.09142229999998 55.946288599999995 124.27887319999999 56.264448699999996 124.27887319999999 56.264448699999996 L 124.27887319999999 101.1309515 L 140.2009476 92.5619821 L 140.045974 84.26482349999999 Z M 261.1815609 73.1652136 C 258.0609137 81.4715135 260.25289760000004 94.4917963 260.25289760000004 94.4917963 L 256.9178941 115.0204435 L 250.7211279 123.61269469999999 L 250.7211279 159.6701261 L 254.603324 163.134679 L 275.1650013 121.7096616 L 280.8872055 62.8726806 C 280.8872055 62.8726806 265.7322861 61.052490500000005 261.181561 73.16521370000001 Z M 124.2788732 123.6126947 L 118.08210700000001 115.0204435 L 114.74710350000001 94.4917963 C 114.74710350000001 94.4917963 116.9390874 81.4715134 113.81844020000001 73.1652136 C 109.26771510000002 61.052490500000005 94.11279570000002 62.8726805 94.11279570000002 62.8726805 L 99.83499990000001 121.70966150000001 L 120.39667720000001 163.1346789 L 124.27887330000001 159.670126 L 124.27887330000001 123.61269460000001 Z M 176.9878278 115.867999 L 185.9152911 115.867999 L 185.9152911 124.7954915 L 176.9878278 124.7954915 L 176.9878278 115.867999 Z M 176.9878278 112.6986687 L 185.9152911 112.6986687 L 185.9152911 103.7711762 L 176.9878278 103.7711762 L 176.9878278 112.6986687 Z M 189.0846797 124.7954914 L 198.0121722 124.7954914 L 198.0121722 115.8679989 L 189.0846797 115.8679989 L 189.0846797 124.7954914 Z M 189.0846797 103.7711762 L 189.0846797 112.6986687 L 198.0121722 112.6986687 L 198.0121722 103.7711762 L 189.0846797 103.7711762 Z" stroke-linecap="round" />
</g>
		<g transform="matrix(0.9043697752390218 0 0 0.9043697752390218 0 38.60070316466167)"  >
<linearGradient id="SVGID_3_252020" gradientUnits="userSpaceOnUse" gradientTransform="matrix(1 0 0 1 0 0)"  x1="187.5" y1="158.9687141" x2="187.5" y2="206.6554837">
<stop offset="0%" style="stop-color:rgb(180,139,207);stop-opacity: 1"/>
<stop offset="23.005329999999997%" style="stop-color:rgb(175,135,202);stop-opacity: 1"/>
<stop offset="49.76702%" style="stop-color:rgb(163,123,188);stop-opacity: 1"/>
<stop offset="78.29124%" style="stop-color:rgb(142,105,164);stop-opacity: 1"/>
<stop offset="100%" style="stop-color:rgb(122,87,142);stop-opacity: 1"/>
</linearGradient>
<path style="stroke: none; stroke-width: 1; stroke-dasharray: none; stroke-linecap: butt; stroke-dashoffset: 0; stroke-linejoin: miter; stroke-miterlimit: 4; fill: url(#SVGID_3_252020); fill-rule: nonzero; opacity: 1;"  paint-order="stroke"  transform=" translate(-187.5, -192.68243394137642)" d="M 194.2609892 243.7362727 L 193.5694223 203.969328 C 193.5694223 203.969328 187.34532030000003 186.6801559 203.94292560000002 170.7741175 C 220.54053080000003 154.8680791 251.20161430000002 156.94571399999998 251.20161430000002 156.94571399999998 L 272.33220800000004 144.79562259999997 C 280.34530700000005 140.18809069999998 290.38658200000003 140.59650899999997 297.8158333 146.09608459999998 C 299.8465924 147.5993738 301.692737 149.4790847 303.1025201 151.82872319999998 L 257.0496037 176.68267809999998 C 257.0496037 176.68267809999998 234.37186849999998 194.28739149999998 228.14776659999998 203.27776099999997 L 237.3226268 222.06269069999996 C 237.3226268 222.06269069999996 218.4658302 239.58687129999996 194.26098919999998 243.73627259999995 Z M 180.7390108 243.7362727 L 181.4305777 203.969328 C 181.4305777 203.969328 187.65467969999997 186.6801559 171.05707439999998 170.7741175 C 154.45946919999997 154.86807919999998 123.79838569999998 156.94571399999998 123.79838569999998 156.94571399999998 L 102.66779199999999 144.79562259999997 C 94.654693 140.18809069999998 84.613418 140.59650899999997 77.18416669999999 146.09608459999998 C 75.1534076 147.5993738 73.30726299999999 149.4790847 71.8974799 151.82872329999998 L 117.9503963 176.68267819999997 C 117.9503963 176.68267819999997 140.6281315 194.28739159999998 146.8522334 203.27776109999996 L 137.67737319999998 222.06269079999996 C 137.67737319999998 222.06269079999996 156.53416979999997 239.58687139999995 180.73901079999996 243.73627269999994 Z" stroke-linecap="round" />
</g>
		<g transform="matrix(0.9043697752390218 0 0 0.9043697752390218 4.521848495642e-8 25.038784514511207)"  >
<path style="stroke: none; stroke-width: 1; stroke-dasharray: none; stroke-linecap: butt; stroke-dashoffset: 0; stroke-linejoin: miter; stroke-miterlimit: 4; fill: rgb(199,166,224); fill-rule: nonzero; opacity: 1;"  paint-order="stroke"  transform=" translate(-187.50000004999998, -177.68644555093505)" d="M 214.2540194 181.8982843 C 210.43579160000002 189.1104924 203.2235834 194.2014629 201.5265933 192.0802252 C 199.8296032 189.9589875 201.1023458 183.5952744 210.43579160000002 174.2618286 C 219.7692374 164.9283828 240.1331193 162.8071451 240.1331193 162.8071451 C 223.1632178 169.17085820000003 218.07224730000002 174.6860762 214.2540195 181.8982843 Z M 134.8668808 162.8071451 C 134.8668808 162.8071451 155.2307626 164.9283828 164.56420849999998 174.2618286 C 173.89765439999996 183.5952744 175.17039699999998 189.9589875 173.47340679999996 192.0802252 C 171.77641659999995 194.2014629 164.56420849999995 189.1104924 160.74598069999996 181.8982843 C 156.92775289999997 174.6860762 151.83678239999995 169.1708582 134.86688089999996 162.8071451 Z" stroke-linecap="round" />
</g>
		<g transform="matrix(0.9043697752390218 0 0 0.9043697752390218 -4.521848495642e-8 4.002373762286851)"  >
<path style="stroke: none; stroke-width: 1; stroke-dasharray: none; stroke-linecap: butt; stroke-dashoffset: 0; stroke-linejoin: miter; stroke-miterlimit: 4; fill: rgb(199,166,224); fill-rule: nonzero; opacity: 1;"  paint-order="stroke"  transform=" translate(-187.49999995000002, -154.42559437237315)" d="M 254.0742077 160.6640554 C 254.0742077 160.6640554 274.0510703 148.2974262 280.3929314 147.029054 C 286.7347925 145.76068180000001 291.17409530000003 148.6145193 291.17409530000003 148.6145193 L 257.71766190000005 161.9378777 C 256.3554331 162.4803582 254.80168330000006 161.9371379 254.07420890000006 160.6640576 L 254.07420760000005 160.6640554 Z M 120.925791 160.6640577 C 120.1983166 161.9371379 118.6445668 162.4803582 117.28233800000001 161.9378778 L 83.8259046 148.6145194 C 83.8259046 148.6145194 88.26520740000001 145.7606819 94.6070685 147.0290541 C 100.94892959999999 148.29742629999998 120.92579219999999 160.6640555 120.92579219999999 160.6640555 L 120.9257909 160.6640577 Z" stroke-linecap="round" />
</g>
</g>
</g>
<g transform="matrix(1.9211538461538462 0 0 1.9211538461538462 639.4130874999998 662.4726163916928)" id="text-logo"  >
<g style=""  paint-order="stroke"   >
		<g transform="matrix(1 0 0 1 0 0)" id="text-logo-path-0"  >
<path style="stroke: none; stroke-width: 0; stroke-dasharray: none; stroke-linecap: butt; stroke-dashoffset: 0; stroke-linejoin: miter; stroke-miterlimit: 4; fill: rgb(73,41,91); fill-rule: nonzero; opacity: 1;"  paint-order="stroke"  transform=" translate(-195.10000000000002, 15.325000000000001)" d="M 12.97 0.56 L 12.97 0.56 Q 9.96 0.56 6.96 -0.56 Q 3.95 -1.69 1.65 -3.85 L 1.65 -3.85 L 5.59 -8.6 Q 7.24 -7.19 9.26 -6.3 Q 11.28 -5.41 13.16 -5.41 L 13.16 -5.41 Q 17.44 -5.41 17.44 -8.37 L 17.44 -8.37 Q 17.44 -9.82 16.24 -10.5 Q 15.04 -11.19 13.02 -12.03 L 13.02 -12.03 L 9.02 -13.72 Q 6.67 -14.66 4.77 -16.71 Q 2.87 -18.75 2.87 -22.09 L 2.87 -22.09 Q 2.87 -25.9 5.92 -28.55 Q 8.98 -31.21 13.77 -31.21 L 13.77 -31.21 Q 16.4 -31.21 19.04 -30.17 Q 21.67 -29.14 23.64 -27.17 L 23.64 -27.17 L 20.12 -22.8 Q 18.61 -23.97 17.11 -24.6 Q 15.6 -25.24 13.77 -25.24 L 13.77 -25.24 Q 11.98 -25.24 10.93 -24.51 Q 9.87 -23.78 9.87 -22.47 L 9.87 -22.47 Q 9.87 -21.06 11.21 -20.35 Q 12.55 -19.65 14.52 -18.85 L 14.52 -18.85 L 18.47 -17.25 Q 21.24 -16.12 22.89 -14.15 Q 24.53 -12.17 24.53 -8.93 L 24.53 -8.93 Q 24.53 -5.12 21.5 -2.28 Q 18.47 0.56 12.97 0.56 Z M 49.21 -15.51 L 49.21 -15.51 L 48.46 -12.69 L 54.99 -12.69 L 54.28 -15.51 Q 53.63 -17.81 53.02 -20.4 Q 52.41 -22.98 51.79 -25.38 L 51.79 -25.38 L 51.61 -25.38 Q 51.04 -22.94 50.45 -20.37 Q 49.87 -17.81 49.21 -15.51 Z M 65.61 0 L 58.28 0 L 56.4 -7.29 L 47.05 -7.29 L 45.17 0 L 38.12 0 L 47.7 -30.64 L 56.02 -30.64 L 65.61 0 Z M 94 0 L 85.68 0 L 76.42 -30.64 L 83.75 -30.64 L 87.42 -16.36 Q 88.12 -13.87 88.67 -11.47 Q 89.21 -9.07 89.91 -6.53 L 89.91 -6.53 L 90.1 -6.53 Q 90.76 -9.07 91.32 -11.47 Q 91.88 -13.87 92.54 -16.36 L 92.54 -16.36 L 96.16 -30.64 L 103.21 -30.64 L 94 0 Z M 132.87 0 L 124.55 0 L 115.29 -30.64 L 122.62 -30.64 L 126.29 -16.36 Q 126.99 -13.87 127.53 -11.47 Q 128.07 -9.07 128.78 -6.53 L 128.78 -6.53 L 128.97 -6.53 Q 129.63 -9.07 130.19 -11.47 Q 130.75 -13.87 131.41 -16.36 L 131.41 -16.36 L 135.03 -30.64 L 142.08 -30.64 L 132.87 0 Z M 169.81 0 L 162.9 0 L 162.9 -10.9 L 153.64 -30.64 L 161.07 -30.64 L 163.79 -23.59 Q 164.45 -21.86 165.06 -20.23 Q 165.67 -18.61 166.29 -16.83 L 166.29 -16.83 L 166.47 -16.83 Q 167.13 -18.61 167.77 -20.23 Q 168.4 -21.86 169.06 -23.59 L 169.06 -23.59 L 171.83 -30.64 L 179.07 -30.64 L 169.81 -10.9 L 169.81 0 Z M 223.44 -15.51 L 223.44 -15.51 L 222.69 -12.69 L 229.22 -12.69 L 228.51 -15.51 Q 227.86 -17.81 227.24 -20.4 Q 226.63 -22.98 226.02 -25.38 L 226.02 -25.38 L 225.83 -25.38 Q 225.27 -22.94 224.68 -20.37 Q 224.1 -17.81 223.44 -15.51 Z M 239.84 0 L 232.51 0 L 230.63 -7.29 L 221.28 -7.29 L 219.4 0 L 212.35 0 L 221.93 -30.64 L 230.25 -30.64 L 239.84 0 Z M 262.02 0 L 255.44 0 L 255.44 -30.64 L 262.54 -30.64 L 270.53 -15.42 L 273.54 -8.65 L 273.73 -8.65 Q 273.54 -11.09 273.21 -14.1 Q 272.88 -17.11 272.88 -19.83 L 272.88 -19.83 L 272.88 -30.64 L 279.46 -30.64 L 279.46 0 L 272.37 0 L 264.38 -15.28 L 261.37 -21.95 L 261.18 -21.95 Q 261.41 -19.41 261.72 -16.5 Q 262.02 -13.58 262.02 -10.86 L 262.02 -10.86 L 262.02 0 Z M 305.55 0 L 298.97 0 L 298.97 -30.64 L 306.06 -30.64 L 314.05 -15.42 L 317.06 -8.65 L 317.25 -8.65 Q 317.06 -11.09 316.73 -14.1 Q 316.4 -17.11 316.4 -19.83 L 316.4 -19.83 L 316.4 -30.64 L 322.98 -30.64 L 322.98 0 L 315.89 0 L 307.9 -15.28 L 304.89 -21.95 L 304.7 -21.95 Q 304.94 -19.41 305.24 -16.5 Q 305.55 -13.58 305.55 -10.86 L 305.55 -10.86 L 305.55 0 Z M 349.4 0 L 342.49 0 L 342.49 -30.64 L 349.4 -30.64 L 349.4 0 Z M 388.55 0 L 368.9 0 L 368.9 -30.64 L 388.08 -30.64 L 388.08 -24.82 L 375.81 -24.82 L 375.81 -18.66 L 386.25 -18.66 L 386.25 -12.88 L 375.81 -12.88 L 375.81 -5.83 L 388.55 -5.83 L 388.55 0 Z" stroke-linecap="round" />
</g>
</g>
</g>
</svg>